<?xml version="1.0" encoding="UTF-8"?>
<svg width="185px" height="53px" viewBox="0 0 185 53" version="1.1" xmlns="http://www.w3.org/2000/svg" xmlns:xlink="http://www.w3.org/1999/xlink">
    <!-- Generator: Sketch 51.3 (57544) - http://www.bohemiancoding.com/sketch -->
    <title>logo@2x</title>
    <desc>Created with Sketch.</desc>
    <defs>
        <polygon id="path-1" points="25.3960726 0.1506517 0.130659544 0.1506517 0.130659544 43.0677055 25.3960726 43.0677055 25.3960726 0.1506517"></polygon>
        <polygon id="path-3" points="25.2653077 43.4924909 0 43.4924909 0 0.224510334 25.2653077 0.224510334"></polygon>
        <polygon id="path-5" points="0 51.9879367 184.785221 51.9879367 184.785221 0 0 0"></polygon>
    </defs>
    <g id="Symbols" stroke="none" stroke-width="1" fill="none" fill-rule="evenodd">
        <g id="header" transform="translate(-170.000000, -13.000000)">
            <g id="logo" transform="translate(170.000000, 13.000000)">
                <path d="M40.4430028,20.0483615 L40.6432877,19.8796316 C44.6516211,16.639441 49.4350043,16.9362903 51.0665356,17.1495608 C50.381614,15.2846237 47.5083162,9.0817037 38.9585228,9.0817037 C34.1000328,9.0817037 30.9500256,11.6309925 29.1566852,13.7802027 C27.0328746,16.3336835 26.508708,19.3144912 26.3930171,20.8846749 C25.688594,28.2642502 21.7168917,31.8086262 21.2673048,32.1927225 C16.8357379,35.8272275 12.2982308,35.3616483 10.6751325,35.0223545 C11.4385869,37.019603 14.5843775,43.3299442 23.0767208,43.134752 C26.460745,43.0205187 29.4465712,41.7222941 31.9506595,39.2251439 C34.7506952,36.4363844 35.3475969,32.1225057 35.4635513,30.8465513 C36.0562365,24.5367341 39.1419416,21.2090346 40.4430028,20.0483615 L40.4430028,20.0483615 Z" id="Fill-1" fill="#072658"></path>
                <g id="Group-5" transform="translate(36.367521, 0.111351)">
                    <mask id="mask-2" fill="white">
                        <use xlink:href="#path-1"></use>
                    </mask>
                    <g id="Clip-4"></g>
                    <path d="M24.2902892,5.60285463 L17.633188,0.504801097 C17.633188,0.504801097 16.3002393,-0.605567434 16.3002393,1.10557388 L16.3002393,21.4597976 L16.3002393,21.9932356 C16.3002393,23.529883 15.9502678,28.1264628 11.9226966,31.5456014 C7.11137892,35.6443757 1.94244729,35.2691874 0.130659544,34.966312 C1.06909972,36.9184961 4.69689174,43.0677055 12.8324117,43.0677055 C20.3539003,43.0677055 25.3960726,36.4888112 25.3960726,30.3377678 L25.3960726,7.9213188 C25.3960726,6.48685261 24.2902892,5.60285463 24.2902892,5.60285463" id="Fill-3" fill="#072658" mask="url(#mask-2)"></path>
                </g>
                <g id="Group-8" transform="translate(0.000000, 8.757449)">
                    <mask id="mask-4" fill="white">
                        <use xlink:href="#path-3"></use>
                    </mask>
                    <g id="Clip-7"></g>
                    <path d="M13.4656282,11.7413743 C18.2845883,7.63736 23.4553647,8.02355235 25.2653077,8.3204017 C24.3200157,6.38393785 20.7006567,0.224510334 12.5551225,0.224510334 C5.04285755,0.224510334 -0.000105413106,6.7960685 -0.000105413106,12.95078 C-0.000105413106,12.95078 -0.000105413106,25.1126952 0.00859116809,35.7316751 C0.00859116809,37.1559231 1.10725926,38.0422791 1.10725926,38.0422791 L7.7643604,43.1269705 C7.7643604,43.1269705 9.10758689,44.2562033 9.10758689,42.545324 L9.10758689,21.8350382 C9.09493732,21.7787076 9.10758689,21.6099777 9.10758689,21.2950501 C9.10758689,19.7547348 9.44991595,15.172041 13.4656282,11.7413743" id="Fill-6" fill="#072658" mask="url(#mask-4)"></path>
                </g>
                <mask id="mask-6" fill="white">
                    <use xlink:href="#path-5"></use>
                </mask>
                <g id="Clip-10"></g>
                <polygon id="Fill-9" fill="#072658" mask="url(#mask-6)" points="106.609281 42.7159141 107.487635 42.7159141 107.487635 35.0151232 106.609281 35.0151232"></polygon>
                <polygon id="Fill-11" fill="#072658" mask="url(#mask-6)" points="154.959637 43.0033313 155.874095 43.0033313 155.874095 35.0614977 154.959637 35.0614977"></polygon>
                <polygon id="Fill-12" fill="#072658" mask="url(#mask-6)" points="114.088182 41.5349096 110.294365 35.015228 109.246295 35.015228 109.246295 42.7160189 110.129657 42.7160189 110.129657 36.3273388 113.854692 42.7160189 114.969963 42.7160189 114.969963 35.015228 114.088182 35.015228"></polygon>
                <polygon id="Fill-13" fill="#072658" mask="url(#mask-6)" points="139.548425 41.7838648 135.640761 35.0616549 134.553162 35.0616549 134.553162 43.0032265 135.464194 43.0032265 135.464194 36.4125422 139.309137 43.0032265 140.460249 43.0032265 140.460249 35.0616549 139.548425 35.0616549"></polygon>
                <polygon id="Fill-14" fill="#072658" mask="url(#mask-6)" points="170.350372 41.7838648 166.438228 35.0616549 165.356689 35.0616549 165.356689 43.0032265 166.266932 43.0032265 166.266932 36.4125422 170.109239 43.0032265 171.258506 43.0032265 171.258506 35.0616549 170.350372 35.0616549"></polygon>
                <polygon id="Fill-15" fill="#072658" mask="url(#mask-6)" points="115.879388 35.8240835 118.199004 35.8240835 118.199004 42.959734 119.111881 42.959734 119.111881 35.8240835 121.428071 35.8240835 121.428071 35.0152804 115.879388 35.0152804"></polygon>
                <polygon id="Fill-16" fill="#072658" mask="url(#mask-6)" points="148.136167 35.8716632 150.529572 35.8716632 150.529572 43.0751725 151.469857 43.0751725 151.469857 35.8716632 153.863261 35.8716632 153.863261 35.0615501 148.136167 35.0615501"></polygon>
                <polygon id="Fill-17" fill="#072658" mask="url(#mask-6)" points="123.373601 39.2805051 126.291963 39.2805051 126.291963 38.474846 123.373601 38.474846 123.373601 35.8241621 126.449819 35.8241621 126.449819 35.015621 122.462568 35.015621 122.462568 42.9600746 126.580268 42.9600746 126.580268 42.1557256 123.373601 42.1557256"></polygon>
                <path d="M129.999474,38.4747936 L129.194908,38.4747936 L129.194908,35.8238477 L129.92832,35.8238477 C130.19686,35.8238477 130.450642,35.8317078 130.686767,35.846118 C130.920784,35.8631482 131.125022,35.9210508 131.296582,36.0048918 C131.46129,36.0824446 131.59859,36.2095161 131.692935,36.380866 C131.796767,36.560862 131.841304,36.8029528 131.841304,37.1100202 C131.830236,37.618568 131.634694,37.9654599 131.248619,38.1719182 C130.874402,38.3707785 130.456703,38.4747936 129.999474,38.4747936 M131.845521,39.4759069 C131.794395,39.3598396 131.725613,39.2592305 131.644972,39.1835116 C131.547992,39.0656103 131.40463,38.9796733 131.221212,38.9241287 C131.613875,38.8277116 131.948562,38.6419515 132.226589,38.3749705 C132.567864,38.0603049 132.746276,37.6371702 132.754972,37.1100202 C132.715442,35.7224526 131.939865,35.0153066 130.450642,35.0153066 L128.284666,35.0153066 L128.284666,42.9600222 L129.194908,42.9600222 L129.194908,39.2807147 L129.77468,39.2807147 C129.958363,39.2807147 130.121226,39.2849068 130.257736,39.2951249 C130.392401,39.306129 130.512572,39.3446434 130.62062,39.4093582 C130.828548,39.5193994 131.037529,39.8120567 131.241767,40.28209 L132.394723,42.9600222 L133.398256,42.9600222 L132.019716,39.8521432 C131.965692,39.7122336 131.909823,39.5885682 131.845521,39.4759069" id="Fill-18" fill="#072658" mask="url(#mask-6)"></path>
                <path d="M143.483154,40.0542523 L145.026402,36.1420241 L146.569913,40.0542523 L143.483154,40.0542523 Z M144.612128,35.1912154 L141.457114,42.8498238 L142.346801,42.8498238 L143.154792,40.828733 L146.868496,40.828733 L147.683339,42.8498238 L148.607812,42.8498238 L145.545298,35.1912154 L144.612128,35.1912154 Z" id="Fill-19" fill="#072658" mask="url(#mask-6)"></path>
                <path d="M174.251895,40.0542523 L175.790136,36.1420241 L177.333911,40.0542523 L174.251895,40.0542523 Z M175.376653,35.1912154 L172.219531,42.8498238 L173.110008,42.8498238 L173.916418,40.828733 L177.634338,40.828733 L178.444702,42.8498238 L179.369965,42.8498238 L176.309823,35.1912154 L175.376653,35.1912154 Z" id="Fill-20" fill="#072658" mask="url(#mask-6)"></path>
                <path d="M162.77789,41.1987074 C162.366515,41.8597408 161.717961,42.2034887 160.846194,42.2152788 C159.979699,42.2034887 159.336415,41.8597408 158.920297,41.1971354 C158.508395,40.5641362 158.29836,39.8239779 158.29836,38.9965725 C158.29836,38.1686432 158.508395,37.4221967 158.926095,36.7716434 C159.336415,36.1326182 159.979699,35.7948964 160.846194,35.7760322 C161.717961,35.7948964 162.366515,36.1326182 162.77789,36.7716434 C163.182939,37.4221967 163.392184,38.1686432 163.392184,38.9965725 C163.392184,39.8239779 163.182939,40.5641362 162.77789,41.1987074 M160.841714,34.9881893 C159.675318,35.0120315 158.800126,35.4197081 158.2417,36.205979 C157.678794,36.9762677 157.398395,37.9152863 157.406038,38.9965725 C157.41816,40.193926 157.722014,41.1596689 158.29836,41.874151 C158.87128,42.6093313 159.729079,42.9845195 160.841714,43.0033837 L160.846194,43.0033837 C161.966472,42.9845195 162.831123,42.6093313 163.410105,41.875985 C163.980917,41.1596689 164.275019,40.193926 164.280026,38.9965725 C164.294784,37.9152863 164.020183,36.9762677 163.468609,36.205979 C162.899905,35.4197081 162.017861,35.0120315 160.841714,34.9881893" id="Fill-21" fill="#072658" mask="url(#mask-6)"></path>
                <polygon id="Fill-22" fill="#072658" mask="url(#mask-6)" points="181.647283 42.1743278 181.647283 35.0614715 180.737832 35.0614715 180.737832 42.9760568 184.785168 42.9760568 184.785168 42.1743278"></polygon>
                <path d="M81.4156538,39.3864329 C81.0648917,39.0479251 80.6503547,38.7612939 80.1852194,38.5409494 L79.5416724,38.1796473 C79.3319003,38.06882 79.1397849,37.9535387 78.9758675,37.8317074 C78.8219644,37.7208801 78.6944145,37.5869966 78.5945356,37.441847 C78.4999274,37.2961733 78.4493291,37.1476176 78.4493291,36.9762677 C78.4493291,36.7417751 78.5033533,36.5368888 78.5963803,36.3731369 C78.6944145,36.2180312 78.8143219,36.0901737 78.9621638,36.0013547 C79.1221282,35.8957675 79.2963234,35.8239787 79.4789516,35.7831062 C79.6665869,35.7438058 79.8579117,35.7267756 80.0502906,35.7267756 C80.5981752,35.7267756 81.0575128,35.8224067 81.4232963,36.0047608 L81.5094715,36.0508733 L81.6557322,35.2030317 L81.6009174,35.1810235 C81.3302692,35.0853924 81.0548775,35.0120315 80.7800128,34.9703731 C80.4951339,34.9420768 80.2592721,34.9281906 80.0632037,34.9281906 C79.3564088,34.9360507 78.7618789,35.1178807 78.2917365,35.4692267 C77.8023561,35.8417949 77.5556895,36.3553207 77.5462023,36.998276 C77.5556895,37.5034177 77.7501766,37.9192164 78.1209672,38.2477681 C78.2917365,38.4104719 78.4891225,38.5626956 78.7052194,38.6944831 C78.9134103,38.8328207 79.1316154,38.9659182 79.3537735,39.0956096 C79.5725057,39.2116769 79.7909744,39.3301023 80.004963,39.4453836 C80.2149986,39.5596169 80.4021068,39.6840683 80.5615442,39.8163798 C80.9051909,40.0610905 81.079386,40.3511278 81.0836026,40.6990677 C81.079386,41.2133795 80.9186311,41.5945938 80.6153048,41.8358986 C80.2974843,42.0806093 79.8955969,42.2034887 79.4215014,42.2034887 C78.7392151,42.2034887 78.1768362,42.0586011 77.7594003,41.7659438 L77.6553048,41.695203 L77.563859,42.6452257 L77.6062877,42.6656619 C78.0279402,42.8789323 78.6277407,42.9897596 79.3851339,43.0033837 L79.3877692,43.0033837 C80.0328974,43.0033837 80.6250556,42.8312478 81.1502764,42.4882859 C81.6897279,42.1327479 81.9751339,41.5552934 81.9917365,40.7705945 C81.9917365,40.4771512 81.9398205,40.2093842 81.8394145,39.9790836 C81.734265,39.7540231 81.5924843,39.5528048 81.4156538,39.3864329" id="Fill-23" fill="#072658" mask="url(#mask-6)"></path>
                <path d="M86.9660491,38.0840948 C86.8569466,38.275881 86.6977728,38.4210306 86.5001232,38.5182337 C86.2945677,38.6060047 86.0605506,38.6717675 85.8009708,38.6974437 C85.541391,38.7330761 85.2646816,38.7527264 84.9705791,38.7527264 L84.5107144,38.7527264 L84.5107144,35.8596897 L85.6773739,35.8596897 C86.6421674,35.8717418 87.1199523,36.3467532 87.1323383,37.304636 C87.1323383,37.6268997 87.0798953,37.8912606 86.9660491,38.0840948 M85.5793397,35.0597947 L83.6062699,35.0597947 L83.6062699,42.8703648 L84.5107144,42.8703648 L84.5107144,39.5528834 L85.5015976,39.5528834 C86.2294751,39.5528834 86.8382358,39.3600492 87.3065335,38.9762149 C87.7827372,38.5984066 88.030985,38.0345763 88.0370463,37.304636 C88.0004152,35.8161972 87.1747671,35.0597947 85.5793397,35.0597947" id="Fill-24" fill="#072658" mask="url(#mask-6)"></path>
                <path d="M90.9154566,42.0722252 L90.1952215,42.0722252 L90.1952215,35.8596111 L91.2844024,35.8596111 C92.1287614,35.8596111 92.8463611,36.0807416 93.4198084,36.5167145 C93.9890392,36.9736477 94.2870947,37.7821888 94.2992172,38.9080155 C94.2425577,41.0394096 93.1341389,42.0722252 90.9154566,42.0722252 M91.2757058,35.0597161 L89.2897229,35.0597161 L89.2897229,42.8705482 L90.7117457,42.8705482 C92.024666,42.8705482 93.1077856,42.5700308 93.9268454,41.964804 C94.7590819,41.3566952 95.1896944,40.3448397 95.2060335,38.952556 C95.2120947,37.797647 94.9090321,36.8578424 94.3044879,36.1465043 C93.6814964,35.4377864 92.660834,35.0715062 91.2757058,35.0597161" id="Fill-25" fill="#072658" mask="url(#mask-6)"></path>
                <path d="M100.45861,41.346346 C100.340284,41.5313201 100.177948,41.6788278 99.9800349,41.7804849 C99.7739523,41.8818801 99.5391446,41.9536689 99.2877343,41.9971614 C99.0379053,42.048252 98.7735819,42.0718322 98.5182187,42.0718322 L97.7924494,42.0718322 L97.7924494,39.2115459 L98.3980477,39.2115459 C98.6795007,39.2115459 98.9659608,39.2225501 99.2389808,39.2440343 C99.5030406,39.2762607 99.7449637,39.3378314 99.960797,39.4384405 C100.16688,39.5254255 100.333169,39.6700511 100.454921,39.8597413 C100.575092,40.0507414 100.635441,40.3169364 100.635441,40.6494182 C100.635441,40.9242593 100.575092,41.1611099 100.45861,41.346346 L100.45861,41.346346 Z M97.8164309,35.8597421 L98.7941375,35.8597421 C98.9622714,35.8597421 99.1427913,35.8673402 99.3346432,35.8914445 C99.518589,35.9194788 99.6948925,35.9773814 99.8548568,36.0586024 C100.015875,36.1421813 100.153439,36.2613926 100.25938,36.4089003 C100.353197,36.5642681 100.403796,36.7809445 100.403796,37.0536896 C100.403796,37.3301027 100.346873,37.5611893 100.238297,37.7419714 C100.134202,37.9135833 99.9868868,38.0524449 99.8100563,38.155674 C99.6350705,38.246065 99.4395292,38.3092078 99.2329195,38.3451022 C99.019985,38.3912147 98.8046788,38.4106029 98.5938526,38.4106029 L97.8164309,38.4106029 L97.8164309,35.8597421 Z M100.09309,38.774787 C100.901345,38.5308623 101.309558,37.9389976 101.309558,37.0196292 C101.295063,36.2716108 101.031794,35.7436748 100.531345,35.4520655 C100.057777,35.1911106 99.4911816,35.0598471 98.8460534,35.0598471 L96.8845791,35.0598471 L96.8845791,42.8704172 L98.4942372,42.8704172 C98.9095648,42.8704172 99.3019651,42.8345228 99.6593155,42.761162 C100.026153,42.6794171 100.353197,42.5549657 100.619629,42.3912138 C101.214159,42.0584701 101.526709,41.4597933 101.539358,40.6137858 C101.532506,40.0832298 101.37465,39.6524969 101.067635,39.3344253 C100.815434,39.0716364 100.487599,38.8806362 100.09309,38.774787 L100.09309,38.774787 Z" id="Fill-26" fill="#072658" mask="url(#mask-6)"></path>
                <path d="M113.690063,23.3182894 C113.369344,23.3890302 111.264508,23.7752225 110.654957,23.8470113 L110.654957,16.7097888 L113.593874,16.7097888 L113.593874,14.2411969 L110.654957,14.2411969 L110.654957,12.0563543 L112.254073,12.0563543 L112.254073,9.58802441 L107.388204,9.58802441 C108.217015,8.4614117 109.002079,7.3717414 109.767378,6.03185828 C110.150818,6.52573385 110.59329,7.08642018 111.296659,8.00159651 C111.997392,8.91834485 112.540797,9.62470482 112.923974,10.1167464 L114.359964,8.21303289 C113.976524,7.72099134 113.369344,6.98083299 112.540797,5.99229583 C111.775234,5.0771195 111.294814,4.38097764 110.848917,3.88736407 L111.231566,2.82965814 L108.711139,2.60800363 C107.817236,4.86568311 106.413924,7.08642018 104.499095,9.27073883 L105.265184,11.9146107 C105.759572,11.5265843 106.253432,11.0015304 106.701175,10.5079168 L106.701175,12.0563543 L108.204365,12.0563543 L108.204365,14.2411969 L105.074123,14.2411969 L105.074123,16.7097888 L108.204365,16.7097888 L108.204365,24.1642969 C106.967343,24.3573931 105.040391,24.5182629 104.595021,24.5871697 L104.881744,27.0376833 C108.455776,26.472281 111.35938,26.0150858 113.593874,25.6629538 C113.593874,25.4512554 113.690063,23.5297258 113.690063,23.3182894" id="Fill-27" fill="#072658" mask="url(#mask-6)"></path>
                <path d="M108.002736,22.278714 C107.428762,20.234305 106.950187,18.6829855 106.56701,17.6255415 L104.786319,18.2601127 C105.104667,19.1061202 105.488107,20.3060938 105.935058,21.8555793 C106.062345,22.278714 106.158007,22.5959996 106.222309,22.807436 L108.002736,22.278714 Z" id="Fill-28" fill="#072658" mask="url(#mask-6)"></path>
                <path d="M110.818215,21.9613237 L112.598379,22.4900456 C113.044276,21.2211653 113.491491,19.7405866 113.939234,18.0483095 L112.158016,17.6254367 C111.775366,19.0368467 111.327624,20.4807449 110.818215,21.9613237" id="Fill-29" fill="#072658" mask="url(#mask-6)"></path>
                <path d="M125.195798,16.9909442 C124.46265,18.0782564 123.521575,19.189673 122.446361,19.810358 C122.071881,18.9868827 121.809139,18.043148 121.662878,16.9909442 L125.195798,16.9909442 Z M117.260563,14.3109159 L123.904488,14.3109159 L123.904488,11.6154295 L117.260563,11.6154295 L117.260563,14.3109159 Z M117.260563,9.14683763 L123.904488,9.14683763 L123.904488,6.45135121 L117.260563,6.45135121 L117.260563,9.14683763 Z M128.695777,25.037841 C126.219623,24.3854536 124.487159,23.3146475 123.522892,21.8778233 L123.51973,21.8720592 C125.292778,20.8848321 126.632579,19.3133384 127.444524,18.1694335 L125.954773,16.9909442 L126.422543,16.9909442 L126.422543,3.77132296 L114.742771,3.77132296 L114.742771,25.4512816 L113.881546,25.7685672 L114.742771,28.2010027 C117.677209,26.7895927 119.848719,25.7685672 121.253085,25.1339961 C121.253085,25.0632553 121.220407,24.9576681 121.156632,24.8169725 C121.028291,23.9707029 120.965571,23.3012854 120.965571,22.8074098 C119.816831,23.3728122 118.663875,23.9707029 117.260563,24.6052741 L117.260563,16.9909442 L119.178291,16.9909442 C119.448939,19.3146484 120.209495,21.4316323 121.474452,23.3044294 C122.833227,25.3187081 124.732508,26.6800755 127.121432,27.3285328 L127.285086,27.3785754 L129.080008,25.1473582 L128.695777,25.037841 Z" id="Fill-30" fill="#072658" mask="url(#mask-6)"></path>
                <path d="M136.354751,24.7110709 L152.477158,24.7110709 L152.477158,6.01034783 L136.354751,6.01034783 L136.354751,24.7110709 Z M136.2301,26.8262208 L152.601282,26.8262208 L152.601282,27.9895139 L154.994687,27.9895139 L154.994687,3.55983418 L133.836695,3.55983418 L133.836695,27.9895139 L136.2301,27.9895139 L136.2301,26.8262208 Z" id="Fill-31" fill="#072658" mask="url(#mask-6)"></path>
                <path d="M139.672892,17.3149894 L142.161168,17.3149894 L142.161168,14.4596812 L139.672892,14.4596812 L139.672892,17.3149894 Z M137.949387,19.1125917 L143.884672,19.1125917 L143.884672,12.6615549 L137.949387,12.6615549 L137.949387,19.1125917 Z" id="Fill-32" fill="#072658" mask="url(#mask-6)"></path>
                <path d="M148.995179,21.1415426 C148.726375,21.1415426 148.448875,20.5391978 148.194566,19.6945003 C150.434858,16.1095138 151.543804,12.7881023 151.543804,12.7881023 L149.655065,11.7974691 C148.958284,13.6831044 148.220129,15.2593142 147.495677,16.5740451 C147.400015,16.0282929 147.323327,15.5294393 147.271938,15.1450809 C147.148078,14.2215205 147.073498,12.5884561 147.028434,10.989976 L151.635514,10.989976 L151.635514,8.72469847 L150.531048,8.72469847 C150.120727,7.5490912 149.409189,6.62684079 149.409189,6.62684079 L147.769224,7.30542845 C148.074659,7.75528753 148.35822,8.28007945 148.579061,8.72469847 L146.980734,8.72469847 C146.96176,7.45110209 146.959915,6.5209916 146.959915,6.5209916 L144.612102,6.5209916 C144.612102,6.5209916 144.606831,7.4070856 144.637665,8.72469847 L137.19629,8.72469847 L137.19629,10.989976 L144.717778,10.989976 C144.804744,12.8127306 144.9626,14.888318 145.249061,16.5976253 C145.404545,17.5248538 145.580848,18.431646 145.78614,19.2792256 C145.400855,19.8071615 145.036126,20.2572826 144.701439,20.6379729 L144.666917,20.0416542 C142.434531,20.6238248 137.230022,21.0128992 137.230022,21.0128992 L137.612408,23.2338982 C138.89634,23.0525922 141.237565,22.7371406 142.898085,22.5147001 C143.374288,22.9344288 144.511696,24.3859252 144.511696,24.3859252 C145.286219,23.6224486 145.994595,22.7966153 146.639986,21.9495597 C147.256126,23.3620177 148.053313,24.2724779 149.11535,24.2724779 C151.24285,24.2724779 152.055058,18.9687521 152.055058,18.9687521 L150.193989,17.5287838 C150.193989,17.5287838 149.706981,21.1415426 148.995179,21.1415426" id="Fill-33" fill="#072658" mask="url(#mask-6)"></path>
                <path d="M79.8083412,15.1811063 L79.9783198,15.4061669 L81.970891,13.6706593 L81.8156702,13.4754671 C79.5643098,10.6620793 77.032287,9.36228266 76.9316175,9.30857206 L76.7774509,9.22473111 L74.8391674,10.8570095 L75.117985,11.0579658 C75.1467101,11.077616 78.4735477,13.4042023 79.8083412,15.1811063" id="Fill-34" fill="#072658" mask="url(#mask-6)"></path>
                <path d="M79.8608369,16.265458 C79.8447614,16.3152385 78.4074537,21.9034996 75.8554024,25.8812285 L75.7249537,26.100787 L78.0382443,27.7286113 L78.1913568,27.5053848 C81.0393554,23.2292346 82.3541204,17.6092711 82.3651887,17.5652546 L82.4028739,17.3742545 L79.9422685,15.9316662 L79.8608369,16.265458 Z" id="Fill-35" fill="#072658" mask="url(#mask-6)"></path>
                <path d="M92.1110256,15.4922348 L96.131745,15.4922348 L96.131745,13.3254704 L92.1110256,13.3254704 L92.1110256,15.4922348 Z M92.1107621,19.8980766 L96.1314815,19.8980766 L96.1314815,17.8549775 L92.1107621,17.8549775 L92.1107621,19.8980766 Z M85.9169516,15.4922348 L89.4970442,15.4922348 L89.4970442,13.3254704 L85.9169516,13.3254704 L85.9169516,15.4922348 Z M85.9169516,19.8980766 L89.4970442,19.8980766 L89.4970442,17.8549775 L85.9169516,17.8549775 L85.9169516,19.8980766 Z M98.6210755,24.9225073 L98.6210755,10.7512913 L92.1107621,10.7512913 L92.1107621,8.77788507 L99.9224003,8.77788507 L99.9224003,6.32763341 L98.0444658,6.32763341 C96.8590954,4.67072671 94.8533476,3.22918644 94.8533476,3.22918644 L92.7817165,4.78679402 C93.4803419,5.29979581 94.0811966,5.83821189 94.5742664,6.32763341 L92.1107621,6.32763341 L92.1107621,2.60797743 L89.4967806,2.60797743 L89.4967806,6.32763341 L82.4794302,6.32763341 L82.4794302,7.55747529 C81.6590527,6.67688336 80.2965883,5.41219508 78.3619943,4.2439239 L76.3032764,5.847906 C76.3032764,5.847906 79.8127422,8.32802599 81.3093447,10.2479837 L83.302443,8.77788507 L89.4967806,8.77788507 L89.4967806,10.7512913 L83.3032336,10.7512913 L83.3032336,27.8836647 L85.9169516,27.8836647 L85.9169516,22.2605572 L89.4967806,22.2605572 L89.4967806,27.4607919 L92.1107621,27.4607919 L92.1107621,22.2605572 L96.131745,22.2605572 L96.131745,24.4996345 C96.1942023,25.1339437 95.8442308,25.4512292 95.0789316,25.4512292 L93.1643661,25.4512292 C93.2268234,25.5921868 93.2913889,25.8036232 93.3554274,26.0858004 C93.4827137,26.8610672 93.5786396,27.3897891 93.6429416,27.6722283 L96.3228063,27.6722283 C97.8549858,27.6014875 98.6210755,26.6836912 98.6210755,24.9225073 L98.6210755,24.9225073 Z" id="Fill-36" fill="#072658" mask="url(#mask-6)"></path>
                <path d="M171.781012,20.5995109 C170.532394,22.4408677 168.939075,23.9298305 167.125442,24.9857024 L168.669744,27.0709839 C170.261746,26.2317885 171.952572,24.5798598 173.668434,22.1969429 L171.781012,20.5995109 Z" id="Fill-37" fill="#072658" mask="url(#mask-6)"></path>
                <path d="M164.283452,19.1639967 L164.282398,6.1935403 L166.341643,6.1935403 L164.6018,11.6361277 C164.406259,12.3128814 164.430504,12.8544415 164.675589,13.1526008 C166.586729,16.7001209 167.003637,18.7848784 165.876771,19.4079214 L165.827491,19.4079214 C165.410582,19.5973496 164.871921,19.4888804 164.283452,19.1639967 L164.283452,19.1639967 Z M167.224214,11.040333 L167.469036,10.1466409 L168.106259,11.040333 L168.522113,10.6344904 L169.502982,11.4736859 L170.82539,12.6925236 C170.017662,13.3692773 169.086073,13.9923203 168.032469,14.5606047 L167.248196,13.0983662 C166.929848,12.6925236 166.929848,11.9879977 167.224214,11.040333 L167.224214,11.040333 Z M170.458552,8.6301678 L173.006387,10.2548481 L172.34492,11.1488022 L170.948196,9.87625386 L170.041643,9.090769 L170.458552,8.6301678 Z M174.62316,6.81605933 L174.035746,8.30528413 L172.78581,7.49333697 L171.756978,6.81605933 L174.62316,6.81605933 Z M179.401273,13.3960016 L173.497085,13.3960016 C174.574407,12.1776878 175.53024,10.4987729 176.290269,8.46824997 C177.074015,10.2011375 178.127355,11.8795285 179.401273,13.3960016 L179.401273,13.3960016 Z M167.0769,21.7093554 C167.566543,21.5196653 168.008488,21.1677953 168.326835,20.5995109 C169.184635,19.0557895 169.134563,17.1601981 168.203766,14.9669713 L169.674278,16.618638 C170.948196,15.7789185 172.050553,14.8854884 173.006387,13.9108374 L173.006387,15.914636 L180.013986,15.914636 L180.013986,14.1275138 C180.748979,14.8854884 181.509008,15.6170007 182.342035,16.3204786 L184.228666,14.5606047 C182.63561,13.3692773 181.337712,12.2319224 180.382142,11.040333 C181.974407,9.17172791 183.199043,7.46608866 184.082142,5.84140833 L183.223816,4.21646599 L178.32316,4.21646599 L178.32316,6.51842397 L181.288694,6.51842397 L179.156978,9.19897622 C178.494984,8.00764877 177.74576,6.32296976 177.224229,4.32179118 L172.736793,4.32493521 L173.2267,2.8084621 L170.948196,2.97090393 C170.140204,5.16413068 169.208353,6.78881102 168.203766,7.84520694 L169.159599,4.92072994 L167.469036,3.67490588 L161.907177,3.67490588 L161.907177,27.6667786 L164.283452,27.6667786 L164.283452,21.8445489 C165.459863,22.0342391 166.440204,21.9802665 167.0769,21.7093554 L167.0769,21.7093554 Z" id="Fill-38" fill="#072658" mask="url(#mask-6)"></path>
                <path d="M184.106071,25.554537 C182.806854,23.5240141 181.558236,21.8993338 180.382089,20.7077443 L178.593492,22.4676182 C179.646833,23.5240141 180.846961,25.1214461 182.243684,27.2067277 L184.106071,25.554537 Z" id="Fill-39" fill="#072658" mask="url(#mask-6)"></path>
                <path d="M176.534353,27.7207775 C176.926489,27.4768527 177.269609,27.2067277 177.490186,26.9085683 C177.686518,26.6104089 177.759516,26.258539 177.759516,25.8254481 L177.759516,20.057977 L183.272885,20.057977 L183.272885,17.5393425 L169.74812,17.5393425 L169.74812,20.057977 L175.407223,20.057977 L175.407223,24.6880932 C175.407223,24.9857286 175.309716,25.1754187 175.137892,25.3106123 C174.745756,25.5817853 173.815222,25.4463298 172.393726,24.932018 L172.393726,27.6668048 C174.378655,28.0459231 175.750343,28.0731714 176.534353,27.7207775" id="Fill-40" fill="#072658" mask="url(#mask-6)"></path>
            </g>
        </g>
    </g>
</svg>